<svg width="32" height="33" viewBox="0 0 32 33" fill="none" xmlns="http://www.w3.org/2000/svg">
<g id="Vertical container">
<g id="Vector">
<mask id="path-1-inside-1_3_2792" fill="white">
<path d="M15.5537 5.3C14.2027 5.30031 12.8935 5.7805 11.8487 6.65893C10.8038 7.53736 10.0879 8.75981 9.8225 10.1185L9.7181 10.6575C9.69035 10.7781 9.68654 10.9032 9.70692 11.0253C9.7273 11.1474 9.77143 11.2641 9.8367 11.3683C9.90197 11.4726 9.98703 11.5623 10.0868 11.6321C10.1866 11.702 10.2991 11.7505 10.4175 11.7748C10.536 11.7991 10.658 11.7986 10.7763 11.7736C10.8946 11.7485 11.0067 11.6992 11.1061 11.6287C11.2054 11.5582 11.2899 11.468 11.3545 11.3633C11.4191 11.2586 11.4625 11.1416 11.4821 11.0194L11.5883 10.4822C11.7878 9.47479 12.3447 8.57922 13.1512 7.96889C13.9576 7.35856 14.9562 7.07691 15.9536 7.17849C16.9509 7.28006 17.876 7.75764 18.5497 8.51872C19.2233 9.2798 19.5976 10.2702 19.6001 11.2982C19.6001 12.4 19.1735 13.4567 18.414 14.236C17.6545 15.0153 16.6244 15.4534 15.5501 15.4538H2.5001C2.2614 15.4538 2.03248 15.5511 1.8637 15.7242C1.69492 15.8973 1.6001 16.1321 1.6001 16.3769C1.6001 16.6217 1.69492 16.8565 1.8637 17.0296C2.03248 17.2027 2.2614 17.3 2.5001 17.3H15.5501C17.0765 17.2616 18.5278 16.6129 19.5944 15.4923C20.6609 14.3716 21.2581 12.8678 21.2586 11.3018C21.259 9.73579 20.6627 8.23161 19.5969 7.11028C18.531 5.98896 17.0801 5.33932 15.5537 5.3ZM25.9001 13.6077C24.7066 13.6077 23.562 14.094 22.7181 14.9595C21.8742 15.8251 21.4001 16.999 21.4001 18.2231C21.4001 18.4679 21.4949 18.7027 21.6637 18.8758C21.8325 19.0489 22.0614 19.1462 22.3001 19.1462C22.5388 19.1462 22.7677 19.0489 22.9365 18.8758C23.1053 18.7027 23.2001 18.4679 23.2001 18.2231C23.2001 17.6754 23.3584 17.14 23.6551 16.6846C23.9518 16.2292 24.3735 15.8742 24.8669 15.6646C25.3602 15.455 25.9031 15.4002 26.4268 15.5071C26.9506 15.6139 27.4317 15.8777 27.8093 16.2649C28.1869 16.6522 28.444 17.1456 28.5482 17.6828C28.6524 18.22 28.5989 18.7768 28.3946 19.2828C28.1902 19.7888 27.8441 20.2213 27.4001 20.5256C26.9561 20.8299 26.4341 20.9923 25.9001 20.9923H2.5001C2.2614 20.9923 2.03248 21.0896 1.8637 21.2627C1.69492 21.4358 1.6001 21.6706 1.6001 21.9154C1.6001 22.1602 1.69492 22.395 1.8637 22.5681C2.03248 22.7412 2.2614 22.8385 2.5001 22.8385H20.0501C20.6468 22.8397 21.2187 23.084 21.6398 23.5176C22.0609 23.9513 22.2968 24.5387 22.2956 25.1508C22.2944 25.7628 22.0562 26.3493 21.6334 26.7812C21.2106 27.2131 20.6378 27.4551 20.0411 27.4538C19.5036 27.4542 18.9832 27.2594 18.5724 26.9039C18.1615 26.5484 17.8867 26.0552 17.7965 25.5117L17.7875 25.4563C17.7713 25.3339 17.7313 25.216 17.6699 25.1097C17.6085 25.0034 17.5269 24.9108 17.43 24.8375C17.333 24.7641 17.2227 24.7115 17.1056 24.6826C16.9884 24.6538 16.8668 24.6494 16.748 24.6697C16.6291 24.69 16.5155 24.7345 16.4137 24.8007C16.312 24.8668 16.2242 24.9533 16.1557 25.0549C16.0871 25.1565 16.0391 25.2711 16.0145 25.3921C15.99 25.5131 15.9894 25.6379 16.0127 25.7591L16.0217 25.8145C16.1817 26.7891 16.6733 27.674 17.4091 28.3121C18.145 28.9502 19.0775 29.3002 20.0411 29.3C21.1162 29.3005 22.1475 28.8633 22.9086 28.0845C23.6696 27.3056 24.0982 26.2488 24.1001 25.1462C24.1001 24.2914 23.8481 23.4975 23.4179 22.8385H25.9001C27.0936 22.8385 28.2382 22.3522 29.0821 21.4866C29.926 20.6211 30.4001 19.4472 30.4001 18.2231C30.4001 16.999 29.926 15.8251 29.0821 14.9595C28.2382 14.094 27.0936 13.6077 25.9001 13.6077Z"/>
</mask>
<path d="M15.5537 5.3C14.2027 5.30031 12.8935 5.7805 11.8487 6.65893C10.8038 7.53736 10.0879 8.75981 9.8225 10.1185L9.7181 10.6575C9.69035 10.7781 9.68654 10.9032 9.70692 11.0253C9.7273 11.1474 9.77143 11.2641 9.8367 11.3683C9.90197 11.4726 9.98703 11.5623 10.0868 11.6321C10.1866 11.702 10.2991 11.7505 10.4175 11.7748C10.536 11.7991 10.658 11.7986 10.7763 11.7736C10.8946 11.7485 11.0067 11.6992 11.1061 11.6287C11.2054 11.5582 11.2899 11.468 11.3545 11.3633C11.4191 11.2586 11.4625 11.1416 11.4821 11.0194L11.5883 10.4822C11.7878 9.47479 12.3447 8.57922 13.1512 7.96889C13.9576 7.35856 14.9562 7.07691 15.9536 7.17849C16.9509 7.28006 17.876 7.75764 18.5497 8.51872C19.2233 9.2798 19.5976 10.2702 19.6001 11.2982C19.6001 12.4 19.1735 13.4567 18.414 14.236C17.6545 15.0153 16.6244 15.4534 15.5501 15.4538H2.5001C2.2614 15.4538 2.03248 15.5511 1.8637 15.7242C1.69492 15.8973 1.6001 16.1321 1.6001 16.3769C1.6001 16.6217 1.69492 16.8565 1.8637 17.0296C2.03248 17.2027 2.2614 17.3 2.5001 17.3H15.5501C17.0765 17.2616 18.5278 16.6129 19.5944 15.4923C20.6609 14.3716 21.2581 12.8678 21.2586 11.3018C21.259 9.73579 20.6627 8.23161 19.5969 7.11028C18.531 5.98896 17.0801 5.33932 15.5537 5.3ZM25.9001 13.6077C24.7066 13.6077 23.562 14.094 22.7181 14.9595C21.8742 15.8251 21.4001 16.999 21.4001 18.2231C21.4001 18.4679 21.4949 18.7027 21.6637 18.8758C21.8325 19.0489 22.0614 19.1462 22.3001 19.1462C22.5388 19.1462 22.7677 19.0489 22.9365 18.8758C23.1053 18.7027 23.2001 18.4679 23.2001 18.2231C23.2001 17.6754 23.3584 17.14 23.6551 16.6846C23.9518 16.2292 24.3735 15.8742 24.8669 15.6646C25.3602 15.455 25.9031 15.4002 26.4268 15.5071C26.9506 15.6139 27.4317 15.8777 27.8093 16.2649C28.1869 16.6522 28.444 17.1456 28.5482 17.6828C28.6524 18.22 28.5989 18.7768 28.3946 19.2828C28.1902 19.7888 27.8441 20.2213 27.4001 20.5256C26.9561 20.8299 26.4341 20.9923 25.9001 20.9923H2.5001C2.2614 20.9923 2.03248 21.0896 1.8637 21.2627C1.69492 21.4358 1.6001 21.6706 1.6001 21.9154C1.6001 22.1602 1.69492 22.395 1.8637 22.5681C2.03248 22.7412 2.2614 22.8385 2.5001 22.8385H20.0501C20.6468 22.8397 21.2187 23.084 21.6398 23.5176C22.0609 23.9513 22.2968 24.5387 22.2956 25.1508C22.2944 25.7628 22.0562 26.3493 21.6334 26.7812C21.2106 27.2131 20.6378 27.4551 20.0411 27.4538C19.5036 27.4542 18.9832 27.2594 18.5724 26.9039C18.1615 26.5484 17.8867 26.0552 17.7965 25.5117L17.7875 25.4563C17.7713 25.3339 17.7313 25.216 17.6699 25.1097C17.6085 25.0034 17.5269 24.9108 17.43 24.8375C17.333 24.7641 17.2227 24.7115 17.1056 24.6826C16.9884 24.6538 16.8668 24.6494 16.748 24.6697C16.6291 24.69 16.5155 24.7345 16.4137 24.8007C16.312 24.8668 16.2242 24.9533 16.1557 25.0549C16.0871 25.1565 16.0391 25.2711 16.0145 25.3921C15.99 25.5131 15.9894 25.6379 16.0127 25.7591L16.0217 25.8145C16.1817 26.7891 16.6733 27.674 17.4091 28.3121C18.145 28.9502 19.0775 29.3002 20.0411 29.3C21.1162 29.3005 22.1475 28.8633 22.9086 28.0845C23.6696 27.3056 24.0982 26.2488 24.1001 25.1462C24.1001 24.2914 23.8481 23.4975 23.4179 22.8385H25.9001C27.0936 22.8385 28.2382 22.3522 29.0821 21.4866C29.926 20.6211 30.4001 19.4472 30.4001 18.2231C30.4001 16.999 29.926 15.8251 29.0821 14.9595C28.2382 14.094 27.0936 13.6077 25.9001 13.6077Z" fill="#101828"/>
<path d="M15.5537 5.3L15.6824 0.301658L15.6175 0.299985L15.5526 0.3L15.5537 5.3ZM9.8225 10.1185L4.91522 9.15996L4.9137 9.16781L9.8225 10.1185ZM9.7181 10.6575L14.5907 11.779L14.6103 11.6939L14.6269 11.6082L9.7181 10.6575ZM11.4821 11.0194L6.57702 10.0497L6.55947 10.1385L6.54515 10.2279L11.4821 11.0194ZM11.5883 10.4822L6.68357 9.51074L6.68322 9.51252L11.5883 10.4822ZM19.6001 11.2982L24.6001 11.2982L24.6001 11.2862L19.6001 11.2982ZM15.5501 15.4538V20.4538L15.5524 20.4538L15.5501 15.4538ZM1.6001 16.3769H-3.3999H1.6001ZM15.5501 17.3V22.3H15.6129L15.6757 22.2984L15.5501 17.3ZM23.2001 18.2231H28.2001H23.2001ZM1.6001 21.9154H-3.3999H1.6001ZM20.0501 22.8385L20.0604 17.8385H20.0501V22.8385ZM20.0411 27.4538L20.0514 22.4538L20.0374 22.4538L20.0411 27.4538ZM17.7965 25.5117L12.8612 26.3137L12.8626 26.3218L12.8639 26.3299L17.7965 25.5117ZM17.7875 25.4563L12.8306 26.1112L12.8403 26.1849L12.8522 26.2583L17.7875 25.4563ZM16.0127 25.7591L20.948 24.9571L20.9363 24.8853L20.9225 24.8138L16.0127 25.7591ZM16.0217 25.8145L11.0864 26.6164L11.0878 26.6246L16.0217 25.8145ZM20.0411 29.3L20.0434 24.3H20.0401L20.0411 29.3ZM24.1001 25.1462L29.1001 25.1548V25.1462H24.1001ZM23.4179 22.8385V17.8385H14.1834L19.2309 25.5714L23.4179 22.8385ZM15.5526 0.3C13.0115 0.300581 10.5664 1.2047 8.63104 2.8318L15.0663 10.4861C15.2206 10.3563 15.3939 10.3 15.5548 10.3L15.5526 0.3ZM8.63104 2.8318C6.69848 4.45659 5.39622 6.69742 4.91523 9.15996L14.7298 11.077C14.7795 10.8222 14.9092 10.6181 15.0663 10.4861L8.63104 2.8318ZM4.9137 9.16781L4.8093 9.70689L14.6269 11.6082L14.7313 11.0691L4.9137 9.16781ZM4.84549 9.53609C4.67081 10.295 4.64704 11.0807 4.7751 11.8482L14.6387 10.2024C14.726 10.7257 14.7099 11.2612 14.5907 11.779L4.84549 9.53609ZM4.7751 11.8482C4.90317 12.6158 5.18148 13.3551 5.59869 14.0215L14.0747 8.71519C14.3614 9.17311 14.5514 9.67908 14.6387 10.2024L4.7751 11.8482ZM5.59869 14.0215C6.01607 14.6882 6.56559 15.2707 7.22027 15.7288L12.9534 7.53544C13.4085 7.85388 13.7879 8.25698 14.0747 8.71519L5.59869 14.0215ZM7.22027 15.7288C7.8753 16.1872 8.6206 16.5103 9.4128 16.6728L11.4222 6.87674C11.9775 6.99065 12.4979 7.21674 12.9534 7.53544L7.22027 15.7288ZM9.4128 16.6728C10.2052 16.8353 11.0224 16.8326 11.8136 16.6648L9.73893 6.88235C10.2936 6.76472 10.8668 6.7628 11.4222 6.87674L9.4128 16.6728ZM11.8136 16.6648C12.6047 16.497 13.3476 16.169 13.9995 15.7065L8.21267 7.55095C8.6658 7.22943 9.18448 6.99994 9.73893 6.88235L11.8136 16.6648ZM13.9995 15.7065C14.6509 15.2442 15.1965 14.6583 15.6095 13.9891L7.09948 8.73747C7.38327 8.27761 7.75987 7.87224 8.21267 7.55095L13.9995 15.7065ZM15.6095 13.9891C16.0223 13.3201 16.2959 12.5792 16.419 11.8109L6.54515 10.2279C6.62912 9.70408 6.81587 9.19706 7.09948 8.73747L15.6095 13.9891ZM16.3872 11.989L16.4934 11.4518L6.68322 9.51252L6.57702 10.0497L16.3872 11.989ZM16.493 11.4536C16.4584 11.6284 16.3561 11.8139 16.1685 11.9558L10.1338 3.98196C8.33339 5.34455 7.11722 7.32122 6.68357 9.51074L16.493 11.4536ZM16.1685 11.9558C15.9772 12.1006 15.7192 12.1805 15.4469 12.1528L16.4602 2.20422C14.1933 1.97334 11.938 2.61652 10.1338 3.98196L16.1685 11.9558ZM15.4469 12.1528C15.1758 12.1251 14.9515 11.9975 14.8057 11.8327L22.2936 5.20473C20.8004 3.51779 18.726 2.43499 16.4602 2.20422L15.4469 12.1528ZM14.8057 11.8327C14.6628 11.6713 14.6005 11.4838 14.6001 11.3101L24.6001 11.2862C24.5948 9.05664 23.7839 6.88831 22.2936 5.20473L14.8057 11.8327ZM14.6001 11.2982C14.6001 11.1146 14.67 10.9138 14.8332 10.7463L21.9948 17.7257C23.6769 15.9997 24.6001 13.6854 24.6001 11.2982L14.6001 11.2982ZM14.8332 10.7463C15.0006 10.5745 15.255 10.454 15.5478 10.4538L15.5524 20.4538C17.9938 20.4527 20.3084 19.4561 21.9948 17.7257L14.8332 10.7463ZM15.5501 10.4538H2.5001V20.4538H15.5501V10.4538ZM2.5001 10.4538C0.893894 10.4538 -0.620146 11.1094 -1.7163 12.2337L5.4437 19.2147C4.68511 19.9927 3.62891 20.4538 2.5001 20.4538V10.4538ZM-1.7163 12.2337C-2.80825 13.3537 -3.3999 14.8463 -3.3999 16.3769H6.6001C6.6001 17.4179 6.19809 18.441 5.4437 19.2147L-1.7163 12.2337ZM-3.3999 16.3769C-3.3999 17.9075 -2.80825 19.4002 -1.7163 20.5201L5.4437 13.5391C6.19809 14.3129 6.6001 15.3359 6.6001 16.3769H-3.3999ZM-1.7163 20.5201C-0.620146 21.6444 0.893894 22.3 2.5001 22.3V12.3C3.62891 12.3 4.68511 12.7611 5.4437 13.5391L-1.7163 20.5201ZM2.5001 22.3H15.5501V12.3H2.5001V22.3ZM15.6757 22.2984C18.5466 22.2263 21.2496 21.0058 23.2163 18.9392L15.9724 12.0453C15.8061 12.22 15.6064 12.297 15.4245 12.3016L15.6757 22.2984ZM23.2163 18.9392C25.1791 16.8768 26.2577 14.1345 26.2586 11.3033L16.2586 11.3003C16.2585 11.6011 16.1426 11.8665 15.9724 12.0453L23.2163 18.9392ZM26.2586 11.3033C26.2594 8.47209 25.1825 5.7292 23.2209 3.66553L15.9728 10.555C16.143 10.734 16.2587 10.9995 16.2586 11.3003L26.2586 11.3033ZM23.2209 3.66553C21.2555 1.5978 18.5533 0.375608 15.6824 0.301658L15.4249 10.2983C15.6068 10.303 15.8066 10.3801 15.9728 10.555L23.2209 3.66553ZM25.9001 8.60769C23.3391 8.60769 20.9094 9.65231 19.1381 11.469L26.2981 18.45C26.2147 18.5356 26.0741 18.6077 25.9001 18.6077V8.60769ZM19.1381 11.469C17.371 13.2814 16.4001 15.7132 16.4001 18.2231H26.4001C26.4001 18.2848 26.3774 18.3687 26.2981 18.45L19.1381 11.469ZM16.4001 18.2231C16.4001 19.7537 16.9917 21.2463 18.0837 22.3663L25.2437 15.3853C25.9981 16.159 26.4001 17.1821 26.4001 18.2231H16.4001ZM18.0837 22.3663C19.1799 23.4906 20.6939 24.1462 22.3001 24.1462V14.1462C23.4289 14.1462 24.4851 14.6072 25.2437 15.3853L18.0837 22.3663ZM22.3001 24.1462C23.9063 24.1462 25.4203 23.4906 26.5165 22.3663L19.3565 15.3853C20.1151 14.6072 21.1713 14.1462 22.3001 14.1462V24.1462ZM26.5165 22.3663C27.6085 21.2463 28.2001 19.7537 28.2001 18.2231H18.2001C18.2001 17.1821 18.6021 16.159 19.3565 15.3853L26.5165 22.3663ZM28.2001 18.2231C28.2001 18.6365 28.0812 19.0506 27.8445 19.4139L19.4657 13.9553C18.6357 15.2293 18.2001 16.7142 18.2001 18.2231H28.2001ZM27.8445 19.4139C27.607 19.7784 27.2563 20.082 26.8219 20.2666L22.9118 11.0627C21.4907 11.6665 20.2966 12.68 19.4657 13.9553L27.8445 19.4139ZM26.8219 20.2666C26.386 20.4517 25.8988 20.5023 25.4274 20.4061L27.4263 10.608C25.9074 10.2981 24.3344 10.4583 22.9118 11.0627L26.8219 20.2666ZM25.4274 20.4061C24.9568 20.3101 24.5424 20.0766 24.2293 19.7554L31.3893 12.7744C30.321 11.6787 28.9444 10.9177 27.4263 10.608L25.4274 20.4061ZM24.2293 19.7554C23.9175 19.4357 23.7189 19.0434 23.6397 18.6348L33.4568 16.7309C33.1691 15.2479 32.4563 13.8688 31.3893 12.7744L24.2293 19.7554ZM23.6397 18.6348C23.5605 18.2267 23.6001 17.8024 23.7584 17.4105L33.0308 21.1552C33.5978 19.7512 33.7443 18.2133 33.4568 16.7309L23.6397 18.6348ZM23.7584 17.4105C23.9171 17.0175 24.1941 16.6613 24.5736 16.4012L30.2266 24.65C31.4942 23.7813 32.4633 22.5602 33.0308 21.1552L23.7584 17.4105ZM24.5736 16.4012C24.9548 16.14 25.4166 15.9923 25.9001 15.9923V25.9923C27.4516 25.9923 28.9575 25.5198 30.2266 24.65L24.5736 16.4012ZM25.9001 15.9923H2.5001V25.9923H25.9001V15.9923ZM2.5001 15.9923C0.893894 15.9923 -0.620146 16.6479 -1.7163 17.7722L5.4437 24.7532C4.68511 25.5312 3.62891 25.9923 2.5001 25.9923V15.9923ZM-1.7163 17.7722C-2.80825 18.8921 -3.3999 20.3848 -3.3999 21.9154H6.6001C6.6001 22.9564 6.19809 23.9794 5.4437 24.7532L-1.7163 17.7722ZM-3.3999 21.9154C-3.3999 23.446 -2.80825 24.9386 -1.7163 26.0586L5.4437 19.0776C6.19809 19.8513 6.6001 20.8744 6.6001 21.9154H-3.3999ZM-1.7163 26.0586C-0.620146 27.1829 0.893894 27.8385 2.5001 27.8385V17.8385C3.62891 17.8385 4.68511 18.2996 5.4437 19.0776L-1.7163 26.0586ZM2.5001 27.8385H20.0501V17.8385H2.5001V27.8385ZM20.0398 27.8385C19.2691 27.8369 18.557 27.5202 18.0528 27.001L25.2267 20.0343C23.8803 18.6478 22.0246 17.8425 20.0604 17.8385L20.0398 27.8385ZM18.0528 27.001C17.5528 26.486 17.2943 25.8148 17.2956 25.141L27.2956 25.1605C27.2993 23.2627 26.569 21.4165 25.2267 20.0343L18.0528 27.001ZM17.2956 25.141C17.2969 24.4672 17.558 23.7968 18.0604 23.2836L25.2064 30.2789C26.5544 28.9018 27.2919 27.0584 27.2956 25.1605L17.2956 25.141ZM18.0604 23.2836C18.567 22.7661 19.2806 22.4523 20.0514 22.4539L20.0308 32.4538C21.9951 32.4579 23.8542 31.6602 25.2064 30.2789L18.0604 23.2836ZM20.0374 22.4538C20.7169 22.4533 21.356 22.7006 21.844 23.1228L15.3008 30.685C16.6105 31.8182 18.2903 32.4551 20.0448 32.4538L20.0374 22.4538ZM21.844 23.1228C22.329 23.5425 22.6312 24.1035 22.7291 24.6935L12.8639 26.3299C13.1421 28.0069 13.994 29.5543 15.3008 30.685L21.844 23.1228ZM22.7318 24.7097L22.7228 24.6543L12.8522 26.2583L12.8612 26.3137L22.7318 24.7097ZM22.7444 24.8014C22.6428 24.0324 22.3911 23.2866 21.9994 22.6085L13.3405 27.6109C13.0716 27.1454 12.8998 26.6354 12.8306 26.1112L22.7444 24.8014ZM21.9994 22.6085C21.6074 21.9301 21.0816 21.3305 20.4471 20.8504L14.4129 28.8246C13.9722 28.4911 13.6096 28.0767 13.3405 27.6109L21.9994 22.6085ZM20.4471 20.8504C19.8122 20.37 19.0826 20.0199 18.3 19.8274L15.9111 29.5379C15.3628 29.403 14.8538 29.1583 14.4129 28.8246L20.4471 20.8504ZM18.3 19.8274C17.5172 19.6348 16.7028 19.6052 15.9072 19.7409L17.5888 29.5985C17.0308 29.6937 16.4597 29.6728 15.9111 29.5379L18.3 19.8274ZM15.9072 19.7409C15.1117 19.8766 14.3573 20.1737 13.688 20.609L19.1395 28.9924C18.6737 29.2953 18.1466 29.5033 17.5888 29.5985L15.9072 19.7409ZM13.688 20.609C13.0191 21.044 12.4508 21.6066 12.0113 22.2576L20.3 27.8521C19.9977 28.3 19.6049 28.6897 19.1395 28.9924L13.688 20.609ZM12.0113 22.2576C11.5721 22.9084 11.269 23.6364 11.1145 24.3974L20.9146 26.3868C20.8092 26.9059 20.6021 27.4045 20.3 27.8521L12.0113 22.2576ZM11.1145 24.3974C10.96 25.1582 10.9561 25.9421 11.1029 26.7044L20.9225 24.8138C21.0226 25.3336 21.0199 25.8679 20.9146 26.3868L11.1145 24.3974ZM11.0774 26.5611L11.0864 26.6164L20.957 25.0125L20.948 24.9571L11.0774 26.5611ZM11.0878 26.6246C11.4341 28.734 12.5018 30.6747 14.1334 32.0895L20.6849 24.5346C20.8448 24.6732 20.9293 24.8441 20.9556 25.0043L11.0878 26.6246ZM14.1334 32.0895C15.7679 33.507 17.8605 34.3004 20.0421 34.3L20.0401 24.3C20.2945 24.2999 20.5221 24.3933 20.6849 24.5346L14.1334 32.0895ZM20.0388 34.3C22.4802 34.3011 24.796 33.3071 26.4847 31.5789L19.3325 24.59C19.4991 24.4195 19.7522 24.2999 20.0434 24.3L20.0388 34.3ZM26.4847 31.5789C28.1693 29.855 29.096 27.5422 29.1001 25.1548L19.1001 25.1375C19.1004 24.9555 19.17 24.7562 19.3325 24.59L26.4847 31.5789ZM29.1001 25.1462C29.1001 23.2972 28.5525 21.5573 27.6049 20.1055L19.2309 25.5714C19.1437 25.4378 19.1001 25.2856 19.1001 25.1462H29.1001ZM23.4179 27.8385H25.9001V17.8385H23.4179V27.8385ZM25.9001 27.8385C28.4611 27.8385 30.8908 26.7938 32.6621 24.9771L25.5021 17.9961C25.5855 17.9106 25.7261 17.8385 25.9001 17.8385V27.8385ZM32.6621 24.9771C34.4292 23.1648 35.4001 20.733 35.4001 18.2231H25.4001C25.4001 18.1613 25.4228 18.0774 25.5021 17.9961L32.6621 24.9771ZM35.4001 18.2231C35.4001 15.7132 34.4292 13.2814 32.6621 11.469L25.5021 18.45C25.4228 18.3687 25.4001 18.2848 25.4001 18.2231H35.4001ZM32.6621 11.469C30.8908 9.65231 28.4611 8.60769 25.9001 8.60769V18.6077C25.7261 18.6077 25.5855 18.5356 25.5021 18.45L32.6621 11.469Z" fill="#101828" mask="url(#path-1-inside-1_3_2792)"/>
</g>
</g>
</svg>
