<svg width="20" height="20" viewBox="0 0 20 20" fill="none" xmlns="http://www.w3.org/2000/svg">
<path d="M15.6699 8.74467C15.44 8.46132 15.16 8.21576 14.9001 7.9702C14.2302 7.40352 13.4703 6.99739 12.8305 6.40238C11.3407 5.02345 11.0108 2.74727 11.9606 1C11.0108 1.21723 10.1809 1.70835 9.47107 2.2467C6.88155 4.2112 5.86173 7.67741 7.08151 10.6525C7.1215 10.7469 7.16149 10.8414 7.16149 10.9642C7.16149 11.172 7.01152 11.3609 6.81156 11.4364C6.5816 11.5309 6.34165 11.4742 6.15168 11.3231C6.09459 11.2785 6.04708 11.224 6.01171 11.1625C4.88191 9.81192 4.70194 7.87575 5.46181 6.32682C3.79211 7.6113 2.88228 9.78358 3.01225 11.8331C3.07224 12.3053 3.13223 12.7776 3.3022 13.2498C3.44218 13.8165 3.71213 14.3832 4.01207 14.8837C5.09187 16.5177 6.96153 17.6888 8.97116 17.9249C11.1108 18.1799 13.4004 17.8116 15.0401 16.4138C16.8697 14.846 17.5096 12.3337 16.5698 10.1803L16.4398 9.9347C16.2298 9.50024 15.6699 8.74467 15.6699 8.74467ZM12.5105 14.6948C12.2306 14.9215 11.7707 15.1671 11.4107 15.2615C10.2909 15.6393 9.17113 15.1104 8.51125 14.4871C9.70103 14.2226 10.4109 13.3915 10.6209 12.5509C10.7908 11.7953 10.4709 11.172 10.3409 10.4447C10.2209 9.7458 10.2409 9.15079 10.5109 8.4991C10.7008 8.858 10.9008 9.2169 11.1408 9.50024C11.9106 10.4447 13.1204 10.8603 13.3804 12.1448C13.4203 12.277 13.4403 12.4092 13.4403 12.5509C13.4703 13.3254 13.1104 14.1754 12.5105 14.6948Z" fill="#101828"/>
</svg>
