<svg width="20" height="20" viewBox="0 0 20 20" fill="none" xmlns="http://www.w3.org/2000/svg">
<path d="M16.475 6.025L16.4834 6.01667L13.3834 2.91667L12.5 3.8L14.2584 5.55833C13.475 5.85833 12.9167 6.60833 12.9167 7.5C12.9167 7.77359 12.9706 8.0445 13.0753 8.29726C13.18 8.55002 13.3334 8.77968 13.5269 8.97314C13.9176 9.36384 14.4475 9.58333 15 9.58333C15.3 9.58333 15.575 9.51667 15.8334 9.40833V15.4167C15.8334 15.6377 15.7456 15.8496 15.5893 16.0059C15.433 16.1622 15.2211 16.25 15 16.25C14.779 16.25 14.5671 16.1622 14.4108 16.0059C14.2545 15.8496 14.1667 15.6377 14.1667 15.4167V11.6667C14.1667 11.2246 13.9911 10.8007 13.6786 10.4882C13.366 10.1756 12.9421 10 12.5 10H11.6667V4.16667C11.6667 3.72464 11.4911 3.30072 11.1786 2.98816C10.866 2.67559 10.4421 2.5 10 2.5H5.00004C4.55801 2.5 4.13409 2.67559 3.82153 2.98816C3.50897 3.30072 3.33337 3.72464 3.33337 4.16667V17.5H11.6667V11.25H12.9167V15.4167C12.9167 15.9692 13.1362 16.4991 13.5269 16.8898C13.9176 17.2805 14.4475 17.5 15 17.5C15.2736 17.5 15.5445 17.4461 15.7973 17.3414C16.0501 17.2367 16.2797 17.0833 16.4732 16.8898C16.6666 16.6964 16.8201 16.4667 16.9248 16.2139C17.0295 15.9612 17.0834 15.6903 17.0834 15.4167V7.5C17.0834 6.925 16.85 6.4 16.475 6.025ZM10 11.25V15.8333H5.00004V10H10V11.25ZM10 8.33333H5.00004V4.16667H10V8.33333ZM15 8.33333C14.779 8.33333 14.5671 8.24554 14.4108 8.08926C14.2545 7.93297 14.1667 7.72101 14.1667 7.5C14.1667 7.27899 14.2545 7.06702 14.4108 6.91074C14.5671 6.75446 14.779 6.66667 15 6.66667C15.2211 6.66667 15.433 6.75446 15.5893 6.91074C15.7456 7.06702 15.8334 7.27899 15.8334 7.5C15.8334 7.72101 15.7456 7.93297 15.5893 8.08926C15.433 8.24554 15.2211 8.33333 15 8.33333Z" fill="#101828"/>
</svg>
