<svg width="33" height="33" viewBox="0 0 33 33" fill="none" xmlns="http://www.w3.org/2000/svg">
<g id="Container">
<g id="Container_2">
<path id="Vector" d="M23.1667 15.1667H25.1667C25.6971 15.1667 26.2058 14.956 26.5809 14.5809C26.956 14.2058 27.1667 13.6971 27.1667 13.1667C27.1667 12.6362 26.956 12.1275 26.5809 11.7525C26.2058 11.3774 25.6971 11.1667 25.1667 11.1667H23.1667V17.8333M23.1667 23.1667V28.5H24.5C25.2072 28.5 25.8855 28.219 26.3856 27.719C26.8857 27.2189 27.1667 26.5406 27.1667 25.8333C27.1667 25.1261 26.8857 24.4478 26.3856 23.9477C25.8855 23.4476 25.2072 23.1667 24.5 23.1667H23.1667ZM4.5 7.16667C4.5 7.87391 4.78095 8.55219 5.28105 9.05229C5.78115 9.55238 6.45942 9.83333 7.16667 9.83333C7.87391 9.83333 8.55219 9.55238 9.05229 9.05229C9.55238 8.55219 9.83333 7.87391 9.83333 7.16667C9.83333 6.45942 9.55238 5.78115 9.05229 5.28105C8.55219 4.78095 7.87391 4.5 7.16667 4.5C6.45942 4.5 5.78115 4.78095 5.28105 5.28105C4.78095 5.78115 4.5 6.45942 4.5 7.16667Z" stroke="#101828" stroke-width="1.8" stroke-linecap="round" stroke-linejoin="round"/>
<path id="Vector_2" d="M7.16675 9.83333V13.8333C7.16675 14.187 7.30722 14.5261 7.55727 14.7761C7.80732 15.0262 8.14646 15.1667 8.50008 15.1667H12.5001M12.5001 15.1667V24.5C12.5001 24.8536 12.6406 25.1928 12.8906 25.4428C13.1407 25.6929 13.4798 25.8333 13.8334 25.8333H17.8334M12.5001 15.1667H17.8334" stroke="#101828" stroke-width="1.8" stroke-linecap="round" stroke-linejoin="round"/>
</g>
</g>
</svg>
