<svg width="20" height="20" viewBox="0 0 20 20" fill="none" xmlns="http://www.w3.org/2000/svg">
<path d="M1.875 16.25V11.875C1.87696 11.2126 2.14098 10.5778 2.6094 10.1094C3.07781 9.64098 3.71256 9.37696 4.375 9.375H15.625C16.2874 9.37696 16.9222 9.64098 17.3906 10.1094C17.859 10.5778 18.123 11.2126 18.125 11.875V16.25M15 9.375H3.75V5.3125C3.75124 4.89848 3.91625 4.50177 4.20901 4.20901C4.50177 3.91625 4.89848 3.75124 5.3125 3.75H14.6875C15.1015 3.75124 15.4982 3.91625 15.791 4.20901C16.0837 4.50177 16.2488 4.89848 16.25 5.3125V9.375H15Z" stroke="#101828" stroke-width="1.4" stroke-linecap="round" stroke-linejoin="round"/>
<path d="M1.875 16.25V15.9375C1.87572 15.6891 1.97473 15.451 2.15038 15.2754C2.32604 15.0997 2.56408 15.0007 2.8125 15H17.1875C17.4359 15.0007 17.674 15.0997 17.8496 15.2754C18.0253 15.451 18.1243 15.6891 18.125 15.9375V16.25M4.375 9.375V8.75C4.37593 8.41876 4.50792 8.10136 4.74214 7.86714C4.97636 7.63292 5.29376 7.50093 5.625 7.5H8.75C9.08124 7.50093 9.39864 7.63292 9.63286 7.86714C9.86708 8.10136 9.99907 8.41876 10 8.75M10 8.75V9.375M10 8.75C10.0009 8.41876 10.1329 8.10136 10.3671 7.86714C10.6014 7.63292 10.9188 7.50093 11.25 7.5H14.375C14.7062 7.50093 15.0236 7.63292 15.2579 7.86714C15.4921 8.10136 15.6241 8.41876 15.625 8.75V9.375" stroke="#101828" stroke-width="1.4" stroke-linecap="round" stroke-linejoin="round"/>
</svg>
