<svg width="20" height="20" viewBox="0 0 20 20" fill="none" xmlns="http://www.w3.org/2000/svg">
<path d="M10 17.5C14.1421 17.5 17.5 14.1421 17.5 10C17.5 5.85786 14.1421 2.5 10 2.5C5.85786 2.5 2.5 5.85786 2.5 10C2.5 14.1421 5.85786 17.5 10 17.5Z" stroke="#101828" stroke-width="1.5"/>
<path d="M5.41663 10C5.41663 7.46877 7.46871 5.41669 9.99996 5.41669" stroke="#101828" stroke-width="1.5" stroke-linecap="round"/>
<path d="M9.99996 12.0834C11.1506 12.0834 12.0833 11.1506 12.0833 10C12.0833 8.84943 11.1506 7.91669 9.99996 7.91669C8.84937 7.91669 7.91663 8.84943 7.91663 10C7.91663 11.1506 8.84937 12.0834 9.99996 12.0834Z" stroke="#101828" stroke-width="1.5"/>
</svg>
