<svg width="20" height="20" viewBox="0 0 20 20" fill="none" xmlns="http://www.w3.org/2000/svg">
<path d="M14.625 1.875H5.37915C4.68879 1.875 4.12915 2.43464 4.12915 3.125V15.8667C4.12915 16.557 4.68879 17.1167 5.37915 17.1167H14.625C15.3153 17.1167 15.875 16.557 15.875 15.8667V3.125C15.875 2.43464 15.3153 1.875 14.625 1.875Z" stroke="#101828" stroke-width="1.3" stroke-linecap="round" stroke-linejoin="round"/>
<path d="M4.12915 8.20416H15.8708M6.44582 6.60416V4.07916M6.44582 12.15V9.625M5.26665 17.1167V17.5542C5.26665 17.7048 5.32622 17.8494 5.43237 17.9563C5.53852 18.0633 5.68265 18.1239 5.83332 18.125H6.86248C7.01388 18.125 7.15907 18.0649 7.26612 17.9578C7.37318 17.8507 7.43332 17.7056 7.43332 17.5542V17.1167M12.5625 17.1167V17.5542C12.5625 17.7056 12.6226 17.8507 12.7297 17.9578C12.8367 18.0649 12.9819 18.125 13.1333 18.125H14.1667C14.318 18.125 14.4632 18.0649 14.5703 17.9578C14.6773 17.8507 14.7375 17.7056 14.7375 17.5542V17.1167" stroke="#101828" stroke-width="1.3" stroke-linecap="round" stroke-linejoin="round"/>
</svg>
