<svg width="20" height="20" viewBox="0 0 20 20" fill="none" xmlns="http://www.w3.org/2000/svg">
<path d="M7.49996 4.16669H17.5C17.721 4.16669 17.9329 4.25448 18.0892 4.41076C18.2455 4.56705 18.3333 4.77901 18.3333 5.00002V15.8334C18.3333 16.0544 18.2455 16.2663 18.0892 16.4226C17.9329 16.5789 17.721 16.6667 17.5 16.6667H7.49996M7.49996 4.16669H2.49996C2.27895 4.16669 2.06698 4.25448 1.9107 4.41076C1.75442 4.56705 1.66663 4.77901 1.66663 5.00002V15.8334C1.66663 16.0544 1.75442 16.2663 1.9107 16.4226C2.06698 16.5789 2.27895 16.6667 2.49996 16.6667H7.49996M7.49996 4.16669V16.6667" stroke="#101828" stroke-width="1.5"/>
<path d="M4.58325 7.08335V8.75002M15.4166 6.66669L10.4166 13.75" stroke="#101828" stroke-width="1.5" stroke-linecap="round" stroke-linejoin="round"/>
<path d="M5.41667 11.25C5.41667 10.7898 5.04357 10.4167 4.58333 10.4167C4.1231 10.4167 3.75 10.7898 3.75 11.25C3.75 11.7103 4.1231 12.0834 4.58333 12.0834C5.04357 12.0834 5.41667 11.7103 5.41667 11.25Z" fill="#101828"/>
<path d="M5.41667 13.75C5.41667 13.2898 5.04357 12.9167 4.58333 12.9167C4.1231 12.9167 3.75 13.2898 3.75 13.75C3.75 14.2103 4.1231 14.5834 4.58333 14.5834C5.04357 14.5834 5.41667 14.2103 5.41667 13.75Z" fill="#101828"/>
</svg>
